<svg xmlns="http://www.w3.org/2000/svg" viewBox="0 0 150 130" width="150" height="130"><path d="M13.6 28.2L19.8 28.1L25.1 28.7L24.0 23.5L24.0 17.9L29.6 17.1L35.8 18.7L40.7 17.4L47.3 19.0L47.2 23.3L48.0 28.0L53.3 28.5L57.2 28.2L57.6 35.2L57.3 40.2L63.8 39.7L69.1 39.0L68.0 33.9L69.4 28.8L74.1 29.2L79.9 28.6L80.6 23.9L79.4 18.2L85.6 18.8L91.5 17.5L97.6 17.2L101.8 18.6L101.2 23.5L101.0 29.4L108.1 29.2L113.8 28.6L113.4 34.7L113.2 39.9L113.7 46.5L112.9 51.4L112.0 56.9L113.3 63.1L108.2 61.5L101.7 62.4L100.9 67.4L101.3 72.2L95.5 73.6L90.2 72.4L90.8 79.3L90.1 83.9L85.6 84.8L80.7 84.8L79.5 89.3L79.7 95.8L75.5 94.2L68.3 94.4L68.4 100.5L69.2 105.5L62.4 105.8L57.7 106.1L59.0 100.9L58.0 95.3L52.9 94.0L47.9 95.6L47.8 90.2L46.8 83.8L40.6 84.3L35.0 83.0L35.4 77.8L35.6 72.0L29.4 72.2L24.1 72.7L24.0 68.3L25.3 61.2L19.0 61.7L13.7 61.2L14.8 57.6L13.9 51.0L13.1 44.6L13.7 39.5L14.7 33.8L14.0 29.0Z" fill="none" stroke="#1a1a1a" stroke-width="2.6" stroke-linecap="round" stroke-linejoin="round"/><path d="M15.2 30.3L20.6 27.8L25.3 28.8L25.1 22.5L24.1 17.8L29.7 17.9L34.7 16.8L42.1 17.8L47.0 18.7L46.6 22.3L47.8 29.2L52.9 29.3L59.3 28.6L58.7 34.1L58.2 40.4L63.0 38.8L68.9 40.6L69.3 34.4L69.4 28.1L73.6 28.5L80.9 28.1L78.9 22.4L78.7 17.4L85.7 18.9L90.5 17.6L95.9 17.5L102.8 18.1L101.3 22.4L102.8 29.6L108.4 28.3L113.1 30.2L113.3 35.7L112.1 41.3L111.8 45.3L111.7 51.9L113.5 57.8L113.9 63.3L107.6 63.4L102.7 61.6L103.3 67.2L101.1 71.8L96.4 72.2L92.2 74.3L90.2 77.4L91.1 83.1L85.6 84.9L79.3 83.8L81.1 89.3L79.6 96.1L75.4 96.1L69.5 94.8L69.5 101.4L69.4 105.3L62.9 105.7L58.8 106.2L58.1 101.4L56.9 95.4L52.0 95.2L47.9 94.3L48.3 88.3L47.2 84.1L40.8 84.2L35.9 83.9L36.6 77.1L35.7 73.8L29.5 74.0L24.2 73.5L24.1 67.4L24.8 60.8L20.1 61.9L14.5 62.1L14.2 56.6L13.4 52.1L12.8 46.6L15.0 40.0L14.8 35.0L14.0 29.0Z" fill="none" stroke="#1a1a1a" stroke-width="1.1" stroke-linecap="round" stroke-linejoin="round" opacity="0.55"/><g transform="translate(114 12) rotate(-8) scale(1.0)"><path d="M0.0 7.0L4.5 6.5L8.8 6.5L14.0 7.0" fill="none" stroke="#1a1a1a" stroke-width="2.4" stroke-linecap="round"/><path d="M7.0 0.0L6.4 4.6L7.5 9.7L7.0 14.0" fill="none" stroke="#1a1a1a" stroke-width="2.4" stroke-linecap="round"/><path d="M20.0 3.0L22.1 1.0L24.0 0.0" fill="none" stroke="#1a1a1a" stroke-width="2.4" stroke-linecap="round"/><path d="M24.0 0.0L23.4 5.2L23.4 10.4L24.0 15.0" fill="none" stroke="#1a1a1a" stroke-width="2.4" stroke-linecap="round"/></g></svg>